<?xml version="1.0" encoding="iso-8859-1"?>
<!-- Generator: Adobe Illustrator 15.1.0, SVG Export Plug-In . SVG Version: 6.00 Build 0)  -->
<!DOCTYPE svg PUBLIC "-//W3C//DTD SVG 1.1//EN" "http://www.w3.org/Graphics/SVG/1.1/DTD/svg11.dtd">
<svg version="1.1" id="Layer_1" xmlns="http://www.w3.org/2000/svg" xmlns:xlink="http://www.w3.org/1999/xlink" x="0px" y="0px"
	 width="936px" height="1368px" viewBox="0 0 936 1368" style="enable-background:new 0 0 936 1368;" xml:space="preserve">
<path style="fill:#2A739A;" d="M427.615,416.959c0,6.627-5.373,12-12,12H30.948c-6.628,0-12-5.373-12-12V32.292
	c0-6.627,5.372-12,12-12h384.667c6.627,0,12,5.373,12,12V416.959z"/>
<path style="fill:#FFFFFF;" d="M344.315,201.661c-28.553-28.552-152.847,96.005-181.792,67.058
	c-28.947-28.945,65.424-121.212,51.214-135.423s-76.83,47.883-90.776,33.937c-13.948-13.947,48.015-76.699,33.936-90.777
	s-45.712,16.501-45.712,16.501s40.284-39.231,54.363-25.152c14.079,14.079-65.226,94.171-51.277,108.118
	c13.946,13.947,93.907-65.488,108.117-51.277c14.211,14.21-106.113,132.429-77.167,161.376
	c28.947,28.945,187.844-130.214,216.396-101.662c28.552,28.552-51.094,107.935-51.094,107.935S372.867,230.213,344.315,201.661z"/>
<path style="fill:#07374C;" d="M151.559,81.793c14.078,14.079-37.184,66.129-23.236,80.077
	c13.947,13.947,65.866-37.446,80.076-23.236c14.211,14.21-64.147,90.464-35.2,119.41c28.945,28.946,131.889-74.259,160.44-45.707
	c28.552,28.551-23.116,79.958-23.116,79.958s62.344-62.082,33.792-90.634c-28.552-28.552-152.846,96.005-181.793,67.058
	c-28.946-28.945,65.425-121.212,51.215-135.423c-14.211-14.21-76.83,47.883-90.777,33.937
	c-13.946-13.947,48.016-76.699,33.937-90.777c-14.078-14.079-45.711,16.501-45.711,16.501S137.479,67.714,151.559,81.793z"/>
<g>
	<path style="fill:#07374C;" d="M85.349,380.415c2.243,1.413,6.647,2.991,10.304,2.991c4.487,0,6.482-1.911,6.482-4.57
		c0-2.742-1.662-4.072-6.648-5.9c-7.895-2.659-11.135-6.98-11.135-11.8c0-7.146,5.899-12.631,15.29-12.631
		c4.487,0,8.393,1.08,10.803,2.41l-2.077,7.146c-1.662-0.997-4.986-2.327-8.56-2.327c-3.656,0-5.65,1.828-5.65,4.321
		c0,2.576,1.911,3.739,7.063,5.65c7.396,2.576,10.72,6.316,10.803,12.299c0,7.396-5.734,12.714-16.454,12.714
		c-4.902,0-9.307-1.164-12.299-2.825L85.349,380.415z"/>
	<path style="fill:#07374C;" d="M158.889,369.279c0,14.875-10.471,21.522-20.775,21.522c-11.385,0-20.276-7.812-20.276-20.858
		c0-13.296,8.726-21.439,20.941-21.439C150.829,348.504,158.889,356.98,158.889,369.279z M128.391,369.694
		c0,7.812,3.906,13.711,10.056,13.711c5.816,0,9.889-5.65,9.889-13.877c0-6.315-2.825-13.628-9.806-13.628
		C131.299,355.9,128.391,362.963,128.391,369.694z"/>
	<path style="fill:#07374C;" d="M167.277,362.88c0-5.318-0.166-9.64-0.332-13.462h8.975l0.499,6.232h0.166
		c2.991-4.571,7.728-7.146,13.877-7.146c9.308,0,17.036,7.978,17.036,20.608c0,14.625-9.225,21.689-18.448,21.689
		c-5.069,0-9.308-2.161-11.385-5.401h-0.166v20.941h-10.222V362.88z M177.499,372.936c0,0.997,0.083,1.911,0.249,2.825
		c1.08,4.155,4.653,7.146,9.058,7.146c6.482,0,10.305-5.401,10.305-13.379c0-7.146-3.49-12.963-10.055-12.963
		c-4.238,0-8.145,3.075-9.225,7.562c-0.166,0.831-0.332,1.745-0.332,2.576V372.936z"/>
	<path style="fill:#07374C;" d="M215.886,330.887h10.222v24.016h0.166c1.246-1.911,2.991-3.49,5.069-4.57
		c2.077-1.164,4.487-1.828,7.063-1.828c6.896,0,14.127,4.57,14.127,17.534v23.85h-10.222v-22.769c0-5.817-2.16-10.305-7.812-10.305
		c-3.988,0-6.814,2.659-7.978,5.734c-0.332,0.914-0.415,1.995-0.415,3.075v24.265h-10.222V330.887z"/>
	<path style="fill:#07374C;" d="M293.165,388.641c-2.161,0.997-6.398,2.078-11.468,2.078c-12.631,0-20.858-8.144-20.858-20.692
		c0-12.132,8.311-21.522,22.521-21.522c3.739,0,7.562,0.831,9.889,1.828l-1.828,7.728c-1.662-0.831-4.072-1.579-7.729-1.579
		c-7.812,0-12.465,5.734-12.382,13.129c0,8.31,5.401,13.047,12.382,13.047c3.49,0,6.066-0.748,8.061-1.579L293.165,388.641z"/>
	<path style="fill:#07374C;" d="M338.451,369.279c0,14.875-10.471,21.522-20.775,21.522c-11.385,0-20.276-7.812-20.276-20.858
		c0-13.296,8.726-21.439,20.941-21.439C330.389,348.504,338.451,356.98,338.451,369.279z M307.953,369.694
		c0,7.812,3.906,13.711,10.056,13.711c5.816,0,9.889-5.65,9.889-13.877c0-6.315-2.826-13.628-9.806-13.628
		C310.861,355.9,307.953,362.963,307.953,369.694z"/>
	<path style="fill:#07374C;" d="M346.839,361.468c0-4.654-0.166-8.559-0.332-12.049h8.892l0.498,6.066h0.25
		c1.828-3.158,6.232-6.98,12.963-6.98c7.063,0,14.377,4.57,14.377,17.368v24.016h-10.222v-22.853c0-5.817-2.16-10.221-7.729-10.221
		c-4.071,0-6.897,2.909-7.978,5.983c-0.332,0.831-0.498,2.078-0.498,3.241v23.85h-10.222V361.468z"/>
</g>
<g>
	<path style="fill:#FFFFFF;" d="M85.349,376.415c2.243,1.413,6.647,2.991,10.304,2.991c4.487,0,6.482-1.911,6.482-4.57
		c0-2.742-1.662-4.072-6.648-5.9c-7.895-2.659-11.135-6.98-11.135-11.8c0-7.146,5.899-12.631,15.29-12.631
		c4.487,0,8.393,1.08,10.803,2.41l-2.077,7.146c-1.662-0.997-4.986-2.327-8.56-2.327c-3.656,0-5.65,1.828-5.65,4.321
		c0,2.576,1.911,3.739,7.063,5.65c7.396,2.576,10.72,6.316,10.803,12.299c0,7.396-5.734,12.714-16.454,12.714
		c-4.902,0-9.307-1.164-12.299-2.825L85.349,376.415z"/>
	<path style="fill:#FFFFFF;" d="M158.889,365.279c0,14.875-10.471,21.522-20.775,21.522c-11.385,0-20.276-7.812-20.276-20.858
		c0-13.296,8.726-21.439,20.941-21.439C150.829,344.504,158.889,352.98,158.889,365.279z M128.391,365.694
		c0,7.812,3.906,13.711,10.056,13.711c5.816,0,9.889-5.65,9.889-13.877c0-6.315-2.825-13.628-9.806-13.628
		C131.299,351.9,128.391,358.963,128.391,365.694z"/>
	<path style="fill:#FFFFFF;" d="M167.277,358.88c0-5.318-0.166-9.64-0.332-13.462h8.975l0.499,6.232h0.166
		c2.991-4.571,7.728-7.146,13.877-7.146c9.308,0,17.036,7.978,17.036,20.608c0,14.625-9.225,21.689-18.448,21.689
		c-5.069,0-9.308-2.161-11.385-5.401h-0.166v20.941h-10.222V358.88z M177.499,368.936c0,0.997,0.083,1.911,0.249,2.825
		c1.08,4.155,4.653,7.146,9.058,7.146c6.482,0,10.305-5.401,10.305-13.379c0-7.146-3.49-12.963-10.055-12.963
		c-4.238,0-8.145,3.075-9.225,7.562c-0.166,0.831-0.332,1.745-0.332,2.576V368.936z"/>
	<path style="fill:#FFFFFF;" d="M215.886,326.887h10.222v24.016h0.166c1.246-1.911,2.991-3.49,5.069-4.57
		c2.077-1.164,4.487-1.828,7.063-1.828c6.896,0,14.127,4.57,14.127,17.534v23.85h-10.222v-22.769c0-5.817-2.16-10.305-7.812-10.305
		c-3.988,0-6.814,2.659-7.978,5.734c-0.332,0.914-0.415,1.995-0.415,3.075v24.265h-10.222V326.887z"/>
	<path style="fill:#FFFFFF;" d="M293.165,384.641c-2.161,0.997-6.398,2.078-11.468,2.078c-12.631,0-20.858-8.144-20.858-20.692
		c0-12.132,8.311-21.522,22.521-21.522c3.739,0,7.562,0.831,9.889,1.828l-1.828,7.728c-1.662-0.831-4.072-1.579-7.729-1.579
		c-7.812,0-12.465,5.734-12.382,13.129c0,8.31,5.401,13.047,12.382,13.047c3.49,0,6.066-0.748,8.061-1.579L293.165,384.641z"/>
	<path style="fill:#FFFFFF;" d="M338.451,365.279c0,14.875-10.471,21.522-20.775,21.522c-11.385,0-20.276-7.812-20.276-20.858
		c0-13.296,8.726-21.439,20.941-21.439C330.389,344.504,338.451,352.98,338.451,365.279z M307.953,365.694
		c0,7.812,3.906,13.711,10.056,13.711c5.816,0,9.889-5.65,9.889-13.877c0-6.315-2.826-13.628-9.806-13.628
		C310.861,351.9,307.953,358.963,307.953,365.694z"/>
	<path style="fill:#FFFFFF;" d="M346.839,357.468c0-4.654-0.166-8.559-0.332-12.049h8.892l0.498,6.066h0.25
		c1.828-3.158,6.232-6.98,12.963-6.98c7.063,0,14.377,4.57,14.377,17.368v24.016h-10.222v-22.853c0-5.817-2.16-10.221-7.729-10.221
		c-4.071,0-6.897,2.909-7.978,5.983c-0.332,0.831-0.498,2.078-0.498,3.241v23.85h-10.222V357.468z"/>
</g>
</svg>
