<svg id="Layer_1" data-name="Layer 1" xmlns="http://www.w3.org/2000/svg" viewBox="0 0 497.92 226"><defs><style>.cls-1{fill:#2d293e;}.cls-2{fill:#0ea48e;}.cls-3{fill:#e8db1b;}.cls-4{fill:#05756b;}</style></defs><title>wutzdoin-logo</title><path class="cls-1" d="M145.73,483.48a2.27,2.27,0,0,0-2.16,1.2,11.72,11.72,0,0,0,0,7.73,2.56,2.56,0,0,0,4.32,0,11.71,11.71,0,0,0,0-7.73A2.27,2.27,0,0,0,145.73,483.48Z" transform="translate(0 -311)"/><path class="cls-1" d="M0,311V537H497.92V311H0Zm322,57q7.51,7.51,7.64,19.85,1.75-.9,3.41-1.83a32.5,32.5,0,0,1,6.78-17.49,22.2,22.2,0,0,1,12.75-8.19l0.47-1.19a1.49,1.49,0,0,1,1.4-1l0.29,0,3.84,1.48q12.86,0,19.67,8T385,390.13q0,14.44-7.12,22.93t-20.22,8.49q-12,0-18.46-8.41-4.8-6.29-6-16c-1.56.79-3.14,1.56-4.72,2.29q-4.79,21.13-29.92,21.13H292c3,10.64,7.44,26.31,10.17,35l0.48,1.51,1.58-.17c2.86-.3,8-1.09,10.54-3a1.48,1.48,0,0,1,.9-0.31l0.3,0a1.48,1.48,0,0,1,.91.57l4.16,5.48a1.51,1.51,0,0,1-.29,2.11c-6.65,5.05-19.07,5.31-21.49,5.31h-0.14a5,5,0,0,1-.92-0.09,5,5,0,0,1-3.68-3.13C291.92,456.93,284.21,429.5,281,418l-0.46-1.66-2.38.38v-0.18L254,420.39h1.16l-30.9,4.91L190.46,456a4.94,4.94,0,0,1-3.32,1.28,5,5,0,0,1-2.83-.89c-11.87-8.29-32.53-17.37-43.79-22l-3.39-1.41,0.75,3.59a79.64,79.64,0,0,0,3.07,10.74,1.51,1.51,0,0,1,0,1.17,1.48,1.48,0,0,1-.83.79l-6.42,2.48a1.49,1.49,0,0,1-.54.1l-0.29,0a1.5,1.5,0,0,1-1.12-.93c-0.54-1.42-5.21-14.1-4.88-25.49a4.91,4.91,0,0,1,3.57-4.6,19.11,19.11,0,0,1-8.61-4.3q-5.65-5.1-5.65-14.61V360.75h10.61v40.52a10.25,10.25,0,0,0,11,10.85q5.75,0,9-3a10.48,10.48,0,0,0,3.2-8.1V360.75h10.61v41.13q0,9.22-6.18,14.44t-16.51,5.22c-1,0-1.91,0-2.83-.11,6.57,2.54,33.07,13.07,50.42,23.85l1.24,0.77,31.54-28.54,0-.09v-0.91c8.05-15,29.56-32.82,46.32-45.17l5.46-4-6.77.53c-12.79,1-30.33,2.71-35.4,3.2l-0.35,0-0.22.11a96.47,96.47,0,0,0-9,4.54v0.43c-7.72,4.39-17.57,11-24.51,18.59v25.77H183.15V401.66l-4.49-3a1.5,1.5,0,0,1-.49-2,43.69,43.69,0,0,1,5-7.3V370.18h-19v-9.43h49.49v6.14c1.68-.85,3.24-1.6,4.64-2.25v-0.15c3.57-1.78,6-2.74,6.32-2.87a5,5,0,0,1,1.31-.31l8.47-.82H236c11-1,28.46-2.64,36.72-3.05H273a4.88,4.88,0,0,1,.93.09,5.07,5.07,0,0,1,3,1.83l0.88,1.14h-0.32l0.68,0.88V361l0.59,0.76,1.51-1c5-3.34,8.35-5.48,9-5.88l1.17-.54,0.14-1.29a41,41,0,0,1,.79-7.09,39.69,39.69,0,0,1,2.58-8.41,22.68,22.68,0,0,1,4-6.3,14,14,0,0,1,5.33-3.67,11.12,11.12,0,0,1,3.95-.71,13.14,13.14,0,0,1,2.54.26,11.36,11.36,0,0,1,5.7,2.85,14.13,14.13,0,0,1,3.51,5.41,23.24,23.24,0,0,1,1.35,7.35,41.71,41.71,0,0,1-3.39,17.24,27.44,27.44,0,0,1-1.74,3.26A24.46,24.46,0,0,1,322,368Zm-94,64.83,3.3-.52h45.39l0.6,2.11h-51ZM190,432.3l-2.34,2.11h-4.91q-1.93-1.07-3.91-2.11H190ZM24.57,427.56V353.2a6.86,6.86,0,0,1,6.85-6.85H283.13c-0.11.71-.2,1.41-0.28,2.11H31.42a4.74,4.74,0,0,0-4.74,4.74v74.36a4.74,4.74,0,0,0,4.74,4.74h87.69q0.11,1.07.25,2.11H31.42A6.86,6.86,0,0,1,24.57,427.56Zm88.59-66.81L93.82,421.34H89.46L76.4,383.64l-12.69,37.7H59.34L39.72,360.75H50.78L62,396.82l12.12-36.07h4.65l12.16,36.07,11.18-36.07h11.06ZM48.34,497H41.39V486.78l-8.74-13.92H40.5l5.06,8.22,4.83-8.22h6.27L48.34,486.2V497ZM70,495a9,9,0,0,1-6.59,2.45,9,9,0,0,1-6.62-2.42,9.79,9.79,0,0,1,0-13,9,9,0,0,1,6.59-2.48A9,9,0,0,1,70,482.06,9.63,9.63,0,0,1,70,495Zm21,2H85v-2.43q-2.88,2.88-5.54,2.88a4.71,4.71,0,0,1-3.52-1.41,5.12,5.12,0,0,1-1.38-3.74V480h6v10.78q0,2.47,1.82,2.46A4.67,4.67,0,0,0,85,491.74V480h6v17Zm15-11.17a7.76,7.76,0,0,0-3.26-.86,4.46,4.46,0,0,0-2.82,1.15V497h-6V480h6v2.66a6.27,6.27,0,0,1,2.49-2.16,8.69,8.69,0,0,1,3.59-.94v6.3Zm21.6,11.62a8.45,8.45,0,0,1-6.32-2.43,10,10,0,0,1,0-13,8.24,8.24,0,0,1,6.24-2.51q6.24,0,7.81,6.08l-5.12.35q-0.19-2.53-2.56-2.53a2.48,2.48,0,0,0-2.14,1.28,6.87,6.87,0,0,0-.9,3.78,7,7,0,0,0,1,3.81,2.87,2.87,0,0,0,2.66,1.25q2.24,0,3.2-2.88l4.32,0.77Q133.44,497.5,127.62,497.5ZM152.33,495a10.19,10.19,0,0,1-13.22,0,9.79,9.79,0,0,1,0-13,9.94,9.94,0,0,1,13.14,0A9.63,9.63,0,0,1,152.33,495Zm31.51,2h-6V486.23q0-2.43-1.82-2.43a3.1,3.1,0,0,0-1.47.42,2.86,2.86,0,0,0-1.12,1V497h-6V486.23q0-2.43-1.82-2.43a3.1,3.1,0,0,0-1.47.42,2.87,2.87,0,0,0-1.12,1V497h-6V480h6v2.4a18,18,0,0,1,2.5-1.92,6.12,6.12,0,0,1,3.14-.93,4.42,4.42,0,0,1,4.58,3.07,12.8,12.8,0,0,1,2.66-2.24,6.4,6.4,0,0,1,3.26-.83,4.59,4.59,0,0,1,3.44,1.33,4.76,4.76,0,0,1,1.3,3.47V497Zm30,0h-6V486.23q0-2.43-1.82-2.43a3.1,3.1,0,0,0-1.47.42,2.86,2.86,0,0,0-1.12,1V497h-6V486.23q0-2.43-1.82-2.43a3.1,3.1,0,0,0-1.47.42,2.87,2.87,0,0,0-1.12,1V497h-6V480h6v2.4a18,18,0,0,1,2.5-1.92,6.12,6.12,0,0,1,3.14-.93,4.42,4.42,0,0,1,4.58,3.07,12.8,12.8,0,0,1,2.66-2.24,6.4,6.4,0,0,1,3.26-.83,4.59,4.59,0,0,1,3.44,1.33,4.76,4.76,0,0,1,1.3,3.47V497Zm19.4,0h-6v-2.43q-2.88,2.88-5.54,2.88a4.71,4.71,0,0,1-3.52-1.41,5.12,5.12,0,0,1-1.38-3.74V480h6v10.78q0,2.47,1.82,2.46a4.67,4.67,0,0,0,2.59-1.54V480h6v17Zm19.42,0h-6V486.26q0-2.46-1.82-2.46a4.67,4.67,0,0,0-2.59,1.54V497h-6V480h6v2.43q2.88-2.88,5.54-2.88a4.71,4.71,0,0,1,3.52,1.41,5.13,5.13,0,0,1,1.38,3.74V497Zm9.4,0h-6V480h6v17Zm0-19.39h-6v-4.8h6v4.8Zm13.76,19.52a19.18,19.18,0,0,1-3.17.32q-3.17,0-4.51-1.06a4.26,4.26,0,0,1-1.34-3.55v-9h-2.5V480h2.82l0.42-6h5.28v6h2.85v3.9h-2.85v8q0,1.44,1.66,1.44a7,7,0,0,0,1.35-.22v4Zm11.88-1.25a12.51,12.51,0,0,1-2.59,4.35,8.38,8.38,0,0,1-5.89,1.89,17.59,17.59,0,0,1-1.79-.1v-4.26a10.4,10.4,0,0,0,2.18.26q2.91,0,2.91-1.5a4.47,4.47,0,0,0-.35-1.47L276.43,480h6.4l3.26,9.57h0.06l3.39-9.57h4.58ZM308.14,497V472.86h6V497h-6Zm24.4-2a10.19,10.19,0,0,1-13.21,0,9.79,9.79,0,0,1,0-13,9.94,9.94,0,0,1,13.14,0A9.63,9.63,0,0,1,332.54,495Zm22.55,2h-4.33l-2.83-8.32h-0.06L345.18,497h-4.45L335,480h6.25l2.74,8.51H344l2.75-8.51h4.32l2.62,8.51h0.06l2.75-8.51H361Zm35.82,0h-5.82v-1.73A8.59,8.59,0,0,1,380,497.5a5.48,5.48,0,0,1-4.61-2.44,10.17,10.17,0,0,1-1.79-6.18,10.74,10.74,0,0,1,1.86-6.58,6,6,0,0,1,9.47-.35v-9.09h6V497Zm17.78-2a10.19,10.19,0,0,1-13.22,0,9.79,9.79,0,0,1,0-13,9.94,9.94,0,0,1,13.13,0A9.63,9.63,0,0,1,408.68,495Zm22.55,2H426.9l-2.83-8.32H424L421.32,497h-4.45l-5.76-17h6.25l2.74,8.51h0.06l2.75-8.51h4.32l2.63,8.51h0.06l2.75-8.51h4.45ZM455,497h-6V486.26q0-2.46-1.82-2.46a4.67,4.67,0,0,0-2.59,1.54V497h-6V480h6v2.43q2.88-2.88,5.54-2.88a4.71,4.71,0,0,1,3.52,1.41,5.12,5.12,0,0,1,1.38,3.74V497Zm9.44,0h-6.27v-6.27h6.27V497Zm7.92-69.49a6.86,6.86,0,0,1-6.85,6.85H304.26l-0.61-2.11H465.5a4.74,4.74,0,0,0,4.74-4.74V353.2a4.74,4.74,0,0,0-4.74-4.74H328.05c0.08-.71.13-1.42,0.17-2.11H465.5a6.86,6.86,0,0,1,6.85,6.85v74.36Zm-81.06-7V360.75H401.9v59.78H391.29Zm19.71,0V360.75h5.1l28.24,36.07V360.75h10.2v60.59h-4.33l-29-37.82v37H411Z" transform="translate(0 -311)"/><path class="cls-1" d="M359.75,369.17l-3.7,9.49a4.51,4.51,0,0,1-.31.66c-2.34,4.11-6.64,8-11.9,11.59q0.13,9.91,3.53,15.46a11.41,11.41,0,0,0,10.32,5.75q8,0,12.14-5.63T374,390.13Q374,370,359.75,369.17Z" transform="translate(0 -311)"/><path class="cls-1" d="M325.95,483.48a2.27,2.27,0,0,0-2.16,1.2,11.74,11.74,0,0,0,0,7.73,2.56,2.56,0,0,0,4.32,0,11.71,11.71,0,0,0,0-7.73A2.27,2.27,0,0,0,325.95,483.48Z" transform="translate(0 -311)"/><path class="cls-1" d="M63.45,483.48a2.27,2.27,0,0,0-2.16,1.2,11.72,11.72,0,0,0,0,7.73,2.56,2.56,0,0,0,4.32,0,11.71,11.71,0,0,0,0-7.73A2.27,2.27,0,0,0,63.45,483.48Z" transform="translate(0 -311)"/><path class="cls-1" d="M379.84,488.81q0,5,2.69,5a3,3,0,0,0,2.37-1.28v-7.75a3.59,3.59,0,0,0-2.5-1.44Q379.84,483.32,379.84,488.81Z" transform="translate(0 -311)"/><path class="cls-1" d="M402.09,483.48a2.27,2.27,0,0,0-2.16,1.2,11.71,11.71,0,0,0,0,7.73,2.56,2.56,0,0,0,4.32,0,11.71,11.71,0,0,0,0-7.73A2.27,2.27,0,0,0,402.09,483.48Z" transform="translate(0 -311)"/><path class="cls-2" d="M276.69,432.3H231.31l-3.3.52-1.76,1.59h51Z" transform="translate(0 -311)"/><path class="cls-2" d="M465.5,346.35H328.23c0,0.7-.1,1.4-0.17,2.11H465.5a4.74,4.74,0,0,1,4.74,4.74v74.36a4.74,4.74,0,0,1-4.74,4.74H303.65l0.61,2.11H465.5a6.86,6.86,0,0,0,6.85-6.85V353.2A6.86,6.86,0,0,0,465.5,346.35Z" transform="translate(0 -311)"/><path class="cls-2" d="M187.62,434.41L190,432.3H178.79q2,1,3.91,2.11h4.91Z" transform="translate(0 -311)"/><path class="cls-2" d="M119.12,432.3H31.42a4.74,4.74,0,0,1-4.74-4.74V353.2a4.74,4.74,0,0,1,4.74-4.74H282.85c0.08-.7.17-1.4,0.28-2.11H31.42a6.86,6.86,0,0,0-6.85,6.85v74.36a6.86,6.86,0,0,0,6.85,6.85h87.94Q119.23,433.37,119.12,432.3Z" transform="translate(0 -311)"/><path class="cls-1" d="M306.29,370.33a11,11,0,0,1-2.67.33,12.21,12.21,0,0,1-4.46-.84c-0.91,0-2,.12-3.23.24v13.83l10.49,13.54,1.31-.44c3.41-1.15,7-2.5,10.69-4,0.12-1.29.2-2.62,0.2-4Q318.62,373,306.29,370.33Z" transform="translate(0 -311)"/><path class="cls-1" d="M304.69,408.11a5.13,5.13,0,0,1-4-1.9L295.93,400v10.82q2.57,0.24,5.55.24,8,0,12.58-5.83c-2.91,1-5.63,1.92-8,2.64A4.7,4.7,0,0,1,304.69,408.11Z" transform="translate(0 -311)"/><path class="cls-1" d="M193.75,370.18v9.12a113.78,113.78,0,0,1,13.75-9.12H193.75Z" transform="translate(0 -311)"/><polygon class="cls-1" points="284.86 58.58 285.32 59.19 285.32 58.27 284.86 58.58"/><polygon class="cls-3" points="78.77 49.75 74.11 49.75 62 85.82 50.78 49.75 39.72 49.75 59.34 110.34 63.71 110.34 76.4 72.64 89.46 110.34 93.82 110.34 113.16 49.75 102.11 49.75 90.92 85.82 78.77 49.75"/><path class="cls-3" d="M132.75,420.64a4.83,4.83,0,0,1,.79.23l1.49,0.57c0.91,0.07,1.85.11,2.83,0.11q10.32,0,16.51-5.22t6.18-14.44V360.75H149.93v40.31a10.48,10.48,0,0,1-3.2,8.1q-3.2,3-9,3a10.25,10.25,0,0,1-11-10.85V360.75H116.14v41.09q0,9.51,5.65,14.61a19.11,19.11,0,0,0,8.61,4.3,5,5,0,0,1,1.39-.2A4.92,4.92,0,0,1,132.75,420.64Z" transform="translate(0 -311)"/><path class="cls-3" d="M193.75,379.3v-9.12H207.5c2.14-1.22,4.21-2.32,6.12-3.29v-6.14H164.13v9.43h19v19.22A69.5,69.5,0,0,1,193.75,379.3Z" transform="translate(0 -311)"/><path class="cls-3" d="M187.88,402.83a1.5,1.5,0,0,1-1,.75,1.52,1.52,0,0,1-.36,0l-0.3,0a1.49,1.49,0,0,1-.54-0.22l-2.57-1.72v18.87h10.61V394.76A40.59,40.59,0,0,0,187.88,402.83Z" transform="translate(0 -311)"/><path class="cls-4" d="M319.52,351.45a38.79,38.79,0,0,0,.77-8.77,23.24,23.24,0,0,0-1.35-7.35,14.13,14.13,0,0,0-3.51-5.41,11.36,11.36,0,0,0-5.7-2.85,13.14,13.14,0,0,0-2.54-.26,11.12,11.12,0,0,0-3.95.71,14,14,0,0,0-5.33,3.67,22.68,22.68,0,0,0-4,6.3,39.69,39.69,0,0,0-2.58,8.41,41,41,0,0,0-.79,7.09l-0.14,1.29-1.17.54c-0.63.4-4,2.54-9,5.88l-1.51,1-0.59-.76v16.16l7.15,9.23V370.19l-0.47-.6,0.47-.32v-8.47q12.69-.45,16-0.45a31.94,31.94,0,0,1,13.88,2.84,27.44,27.44,0,0,0,1.74-3.26A38.94,38.94,0,0,0,319.52,351.45Z" transform="translate(0 -311)"/><path class="cls-4" d="M355.75,379.32a4.51,4.51,0,0,0,.31-0.66l3.7-9.49c-0.41,0-.81-0.05-1.23-0.05a12.31,12.31,0,0,0-10.9,5.69q-3.79,5.69-3.79,15.32c0,0.27,0,.52,0,0.78C349.12,387.34,353.42,383.43,355.75,379.32Z" transform="translate(0 -311)"/><path class="cls-4" d="M306.42,397.43l-10.49-13.54V400l4.78,6.16a5.13,5.13,0,0,0,4,1.9,4.7,4.7,0,0,0,1.34-.19c2.4-.72,5.13-1.6,8-2.64h0c2.42-3.1,3.86-7.21,4.35-12.28-3.64,1.5-7.28,2.85-10.69,4Z" transform="translate(0 -311)"/><path class="cls-4" d="M329.64,388.29a50.35,50.35,0,0,1-1.13,11.1c1.59-.73,3.16-1.5,4.72-2.29a56.57,56.57,0,0,1-.41-7c0-1.41.09-2.78,0.22-4.12q-1.66.93-3.41,1.83C329.63,388,329.64,388.14,329.64,388.29Z" transform="translate(0 -311)"/><path class="cls-4" d="M303.62,370.66a11,11,0,0,0,2.67-.33,25.67,25.67,0,0,0-5.5-.56c-0.46,0-1,0-1.63.05A12.21,12.21,0,0,0,303.62,370.66Z" transform="translate(0 -311)"/><path class="cls-4" d="M277.49,360.49h0.32l-0.88-1.14a5.07,5.07,0,0,0-3-1.83,4.88,4.88,0,0,0-.93-0.09h-0.24c-8.26.42-25.72,2-36.72,3.05h41.45Z" transform="translate(0 -311)"/><path class="cls-4" d="M285.32,420.53V406l-0.24-.06a4.89,4.89,0,0,0-.95-0.09,5,5,0,0,0-.78.06l-5.19.82v10l2.38-.38L281,418c3.2,11.47,10.91,38.91,13.49,45.82a5,5,0,0,0,3.68,3.13,5,5,0,0,0,.92.09h0.14c2.42,0,14.84-.26,21.49-5.31a1.51,1.51,0,0,0,.29-2.11l-4.16-5.48a1.48,1.48,0,0,0-.91-0.57l-0.3,0a1.48,1.48,0,0,0-.9.31c-2.52,1.91-7.68,2.7-10.54,3l-1.58.17-0.48-1.51c-2.73-8.7-7.19-24.38-10.17-35h-6.66Z" transform="translate(0 -311)"/><path class="cls-4" d="M358.53,359.69h0l-3.84-1.48-0.29,0a1.49,1.49,0,0,0-1.4,1l-0.47,1.19A26.76,26.76,0,0,1,358.53,359.69Z" transform="translate(0 -311)"/><path class="cls-4" d="M218.27,420.39v-3l0,0.09-31.54,28.54-1.24-.77C168.09,434.51,141.59,424,135,421.44l-1.49-.57a4.83,4.83,0,0,0-.79-0.23,4.92,4.92,0,0,0-.95-0.09,5,5,0,0,0-1.39.2,4.91,4.91,0,0,0-3.57,4.6c-0.33,11.39,4.34,24.07,4.88,25.49a1.5,1.5,0,0,0,1.12.93l0.29,0a1.49,1.49,0,0,0,.54-0.1l6.42-2.48a1.48,1.48,0,0,0,.83-0.79,1.51,1.51,0,0,0,0-1.17,79.64,79.64,0,0,1-3.07-10.74l-0.75-3.59,3.39,1.41c11.26,4.67,31.92,13.75,43.79,22a5,5,0,0,0,6.15-.39L224.3,425.3l30.9-4.91H218.27Z" transform="translate(0 -311)"/><path class="cls-4" d="M218.27,364.64c-1.4.65-3,1.4-4.64,2.25-1.92,1-4,2.07-6.12,3.29a113.78,113.78,0,0,0-13.75,9.12,69.5,69.5,0,0,0-10.61,10.09,43.69,43.69,0,0,0-5,7.3,1.5,1.5,0,0,0,.49,2l4.49,3,2.57,1.72a1.49,1.49,0,0,0,.54.22l0.3,0a1.52,1.52,0,0,0,.36,0,1.5,1.5,0,0,0,1-.75,40.59,40.59,0,0,1,5.88-8.07c6.94-7.6,16.8-14.2,24.51-18.59V364.64Z" transform="translate(0 -311)"/><path class="cls-3" d="M301.28,360.34q-3.26,0-16,.45v59.73h13.26q25.14,0,29.92-21.13a50.35,50.35,0,0,0,1.13-11.1c0-.15,0-0.3,0-0.45Q329.49,375.51,322,368a24.46,24.46,0,0,0-6.83-4.81A31.94,31.94,0,0,0,301.28,360.34Zm17.34,28.6c0,1.41-.08,2.75-0.2,4-0.49,5.08-1.93,9.18-4.35,12.28h0q-4.55,5.83-12.58,5.83-3,0-5.55-.24v-40.8c1.25-.11,2.32-0.19,3.23-0.24,0.61,0,1.17-.05,1.63-0.05a25.67,25.67,0,0,1,5.5.56Q318.6,373,318.62,388.95Z" transform="translate(0 -311)"/><path class="cls-3" d="M332.82,390.13a56.57,56.57,0,0,0,.41,7q1.21,9.76,6,16,6.43,8.41,18.46,8.41,13.1,0,20.22-8.49T385,390.13q0-14.44-6.82-22.44t-19.67-8h0a26.76,26.76,0,0,0-6,.65,22.2,22.2,0,0,0-12.75,8.19A32.5,32.5,0,0,0,333,386C332.91,387.35,332.82,388.72,332.82,390.13Zm37,16.36q-4.18,5.63-12.14,5.63a11.41,11.41,0,0,1-10.32-5.75q-3.41-5.53-3.53-15.46c0-.26,0-0.51,0-0.78q0-9.63,3.79-15.32a12.31,12.31,0,0,1,10.9-5.69c0.42,0,.82,0,1.23.05Q374,370,374,390.13,374,400.86,369.85,406.49Z" transform="translate(0 -311)"/><rect class="cls-3" x="391.29" y="49.75" width="10.61" height="59.78"/><polygon class="cls-3" points="450.21 110.34 454.54 110.34 454.54 49.75 444.34 49.75 444.34 85.82 416.1 49.75 411 49.75 411 109.57 421.21 109.57 421.21 72.52 450.21 110.34"/><path class="cls-3" d="M278.17,406.72v-0.18l-46.61,7.41,3.61-4.05c10.68-12,27.45-24.94,39.63-33.67l1.52-1.09,1.86,2.4V361.36l-0.68-.88H234.36l-8.47.82a5,5,0,0,0-1.31.31c-0.33.13-2.75,1.09-6.32,2.87v11.25a96.47,96.47,0,0,1,9-4.54l0.22-.11,0.35,0c5.07-.5,22.61-2.19,35.4-3.2l6.77-.53-5.46,4c-16.76,12.34-38.27,30.12-46.32,45.17v3.88H254l24.13-3.83v-9.84Z" transform="translate(0 -311)"/><path class="cls-1" d="M276.31,375.12l-1.52,1.09c-12.18,8.73-28.94,21.66-39.63,33.67l-3.61,4.05,46.61-7.41v0.18l5.19-.82a5,5,0,0,1,.78-0.06,4.89,4.89,0,0,1,.95.09l0.24,0.06V386.35l-7.15-9.23v0.41Z" transform="translate(0 -311)"/><polygon class="cls-2" points="50.39 161.86 45.55 170.08 40.5 161.86 32.66 161.86 41.39 175.78 41.39 186.05 48.34 186.05 48.34 175.2 56.66 161.86 50.39 161.86"/><path class="cls-2" d="M63.45,479.58a9,9,0,0,0-6.59,2.48,9.79,9.79,0,0,0,0,13,9,9,0,0,0,6.62,2.42A9,9,0,0,0,70,495a9.63,9.63,0,0,0,0-13A9,9,0,0,0,63.45,479.58Zm2.16,12.83a2.56,2.56,0,0,1-4.32,0,11.72,11.72,0,0,1,0-7.73,2.55,2.55,0,0,1,4.32,0A11.71,11.71,0,0,1,65.61,492.41Z" transform="translate(0 -311)"/><path class="cls-2" d="M85,491.74a4.67,4.67,0,0,1-2.59,1.54q-1.82,0-1.82-2.46V480h-6v12.32a5.12,5.12,0,0,0,1.38,3.74,4.71,4.71,0,0,0,3.52,1.41q2.66,0,5.54-2.88V497h6V480H85v11.71Z" transform="translate(0 -311)"/><path class="cls-2" d="M99.94,482.68V480h-6v17h6V486.17a4.46,4.46,0,0,1,2.82-1.15,7.76,7.76,0,0,1,3.26.86v-6.3a8.69,8.69,0,0,0-3.59.94A6.27,6.27,0,0,0,99.94,482.68Z" transform="translate(0 -311)"/><path class="cls-2" d="M128.29,493.59a2.87,2.87,0,0,1-2.66-1.25,7,7,0,0,1-1-3.81,6.87,6.87,0,0,1,.9-3.78,2.48,2.48,0,0,1,2.14-1.28q2.37,0,2.56,2.53l5.12-.35q-1.57-6.08-7.81-6.08a8.24,8.24,0,0,0-6.24,2.51,10,10,0,0,0,0,13,8.45,8.45,0,0,0,6.32,2.43q5.82,0,8.19-6l-4.32-.77Q130.53,493.59,128.29,493.59Z" transform="translate(0 -311)"/><path class="cls-2" d="M145.73,479.58a9,9,0,0,0-6.59,2.48,9.79,9.79,0,0,0,0,13,10.19,10.19,0,0,0,13.22,0,9.63,9.63,0,0,0,0-13A9,9,0,0,0,145.73,479.58Zm2.16,12.83a2.56,2.56,0,0,1-4.32,0,11.72,11.72,0,0,1,0-7.73,2.55,2.55,0,0,1,4.32,0A11.71,11.71,0,0,1,147.89,492.41Z" transform="translate(0 -311)"/><path class="cls-2" d="M179.1,479.58a6.4,6.4,0,0,0-3.26.83,12.8,12.8,0,0,0-2.66,2.24,4.42,4.42,0,0,0-4.58-3.07,6.12,6.12,0,0,0-3.14.93,18,18,0,0,0-2.5,1.92V480h-6v17h6V485.21a2.87,2.87,0,0,1,1.12-1,3.1,3.1,0,0,1,1.47-.42q1.82,0,1.82,2.43V497h6V485.21a2.86,2.86,0,0,1,1.12-1,3.1,3.1,0,0,1,1.47-.42q1.82,0,1.82,2.43V497h6V484.38a4.76,4.76,0,0,0-1.3-3.47A4.59,4.59,0,0,0,179.1,479.58Z" transform="translate(0 -311)"/><path class="cls-2" d="M209.05,479.58a6.4,6.4,0,0,0-3.26.83,12.8,12.8,0,0,0-2.66,2.24,4.42,4.42,0,0,0-4.58-3.07,6.12,6.12,0,0,0-3.14.93,18,18,0,0,0-2.5,1.92V480h-6v17h6V485.21a2.87,2.87,0,0,1,1.12-1,3.1,3.1,0,0,1,1.47-.42q1.82,0,1.82,2.43V497h6V485.21a2.86,2.86,0,0,1,1.12-1,3.1,3.1,0,0,1,1.47-.42q1.82,0,1.82,2.43V497h6V484.38a4.76,4.76,0,0,0-1.3-3.47A4.59,4.59,0,0,0,209.05,479.58Z" transform="translate(0 -311)"/><path class="cls-2" d="M227.18,491.74a4.67,4.67,0,0,1-2.59,1.54q-1.82,0-1.82-2.46V480h-6v12.32a5.12,5.12,0,0,0,1.38,3.74,4.71,4.71,0,0,0,3.52,1.41q2.66,0,5.54-2.88V497h6V480h-6v11.71Z" transform="translate(0 -311)"/><path class="cls-2" d="M247.72,479.58q-2.66,0-5.54,2.88V480h-6v17h6V485.34a4.67,4.67,0,0,1,2.59-1.54q1.83,0,1.82,2.46V497h6V484.73a5.13,5.13,0,0,0-1.38-3.74A4.71,4.71,0,0,0,247.72,479.58Z" transform="translate(0 -311)"/><rect class="cls-2" x="256" y="169.03" width="6.02" height="17.02"/><rect class="cls-2" x="256" y="161.86" width="6.02" height="4.8"/><path class="cls-2" d="M272.77,492v-8h2.85V480h-2.85v-6h-5.28l-0.42,6h-2.82v3.9h2.5v9a4.26,4.26,0,0,0,1.34,3.55q1.34,1.06,4.51,1.06a19.18,19.18,0,0,0,3.17-.32v-4a7,7,0,0,1-1.35.22Q272.77,493.4,272.77,492Z" transform="translate(0 -311)"/><path class="cls-2" d="M286.15,489.59h-0.06L282.83,480h-6.4l5.7,15.07a4.47,4.47,0,0,1,.35,1.47q0,1.5-2.91,1.5a10.4,10.4,0,0,1-2.18-.26v4.26a17.59,17.59,0,0,0,1.79.1,8.38,8.38,0,0,0,5.89-1.89,12.51,12.51,0,0,0,2.59-4.35l6.46-15.9h-4.58Z" transform="translate(0 -311)"/><rect class="cls-2" x="308.14" y="161.86" width="6.02" height="24.19"/><path class="cls-2" d="M325.95,479.58a9,9,0,0,0-6.59,2.48,9.79,9.79,0,0,0,0,13,10.19,10.19,0,0,0,13.21,0,9.63,9.63,0,0,0,0-13A9,9,0,0,0,325.95,479.58Zm2.16,12.83a2.56,2.56,0,0,1-4.32,0,11.74,11.74,0,0,1,0-7.73,2.55,2.55,0,0,1,4.32,0A11.71,11.71,0,0,1,328.11,492.41Z" transform="translate(0 -311)"/><polygon class="cls-2" points="353.79 177.54 353.73 177.54 351.1 169.03 346.78 169.03 344.03 177.54 343.97 177.54 341.22 169.03 334.97 169.03 340.73 186.05 345.18 186.05 347.87 177.73 347.93 177.73 350.76 186.05 355.09 186.05 360.99 169.03 356.54 169.03 353.79 177.54"/><path class="cls-2" d="M384.89,481.95a6,6,0,0,0-9.47.35,10.74,10.74,0,0,0-1.86,6.58,10.17,10.17,0,0,0,1.79,6.18A5.48,5.48,0,0,0,380,497.5a8.59,8.59,0,0,0,5.12-2.18V497h5.82V472.86h-6v9.09Zm0,10.56a3,3,0,0,1-2.37,1.28q-2.69,0-2.69-5,0-5.49,2.56-5.49a3.59,3.59,0,0,1,2.5,1.44v7.75Z" transform="translate(0 -311)"/><path class="cls-2" d="M402.09,479.58a9,9,0,0,0-6.59,2.48,9.79,9.79,0,0,0,0,13,10.19,10.19,0,0,0,13.22,0,9.63,9.63,0,0,0,0-13A9,9,0,0,0,402.09,479.58Zm2.16,12.83a2.56,2.56,0,0,1-4.32,0,11.71,11.71,0,0,1,0-7.73,2.55,2.55,0,0,1,4.32,0A11.71,11.71,0,0,1,404.25,492.41Z" transform="translate(0 -311)"/><polygon class="cls-2" points="429.94 177.54 429.87 177.54 427.25 169.03 422.93 169.03 420.17 177.54 420.11 177.54 417.37 169.03 411.12 169.03 416.88 186.05 421.32 186.05 424.01 177.73 424.07 177.73 426.9 186.05 431.23 186.05 437.13 169.03 432.69 169.03 429.94 177.54"/><path class="cls-2" d="M450.1,479.58q-2.66,0-5.54,2.88V480h-6v17h6V485.34a4.67,4.67,0,0,1,2.59-1.54q1.83,0,1.82,2.46V497h6V484.73a5.12,5.12,0,0,0-1.38-3.74A4.71,4.71,0,0,0,450.1,479.58Z" transform="translate(0 -311)"/><rect class="cls-2" x="458.16" y="179.78" width="6.27" height="6.27"/></svg>